<svg xmlns="http://www.w3.org/2000/svg" viewBox="0 0 287.23 232.58"><defs><clipPath id="a"><path fill="none" d="M-79.39,82.42c-24.25-7.36-45.15-17.76-68.83-46.62s-87.33-20-105.83,23.31-5.18,83.26,17,90.66,31.73,14.64,44,43c9.83,22.78,64.5,33.75,81.44,11.78,31-40.18,31.84-24.48,46.64-54.45S-54.49,90-79.39,82.42Z"/></clipPath><clipPath id="b"><path fill="none" d="M118.14,16.27C148,22.15,163.23,56,211.3,86s37.49,147.54-38.43,128.39c-72.43-18.28-75.78-16.84-123.22-15.15C-9.72,201.39,23.68-2.34,118.14,16.27Z"/></clipPath><clipPath id="c"><path fill="none" d="M245.89,60.88l.39,99.33a4.71,4.71,0,0,1-4.71,4.71L89.19,165a4.7,4.7,0,0,1-4.7-4.7L84.1,60.93a6,6,0,0,1,6-6l149.78,0A6,6,0,0,1,245.89,60.88Z"/></clipPath></defs><g fill="#8526fe" class="color000000 svgShape" clip-path="url(#a)"><rect width="70.36" height="161.64" x="-57.21" y="70.43" fill="#ad59d4" class="colorc6d0db svgShape"/><rect width="10.99" height="4.31" x="-5.24" y="78.17" fill="#5fe4d4" class="coloraab6c2 svgShape"/><rect width="10.99" height="4.31" x="-5.24" y="93.85" fill="#5fe4d4" class="coloraab6c2 svgShape"/><rect width="10.99" height="4.31" x="-5.24" y="109.53" fill="#5fe4d4" class="coloraab6c2 svgShape"/><rect width="10.99" height="4.31" x="-5.24" y="125.21" fill="#5fe4d4" class="coloraab6c2 svgShape"/><rect width="10.99" height="4.31" x="-5.24" y="140.89" fill="#5fe4d4" class="coloraab6c2 svgShape"/><rect width="10.99" height="4.31" x="-5.24" y="155.38" fill="#5fe4d4" class="coloraab6c2 svgShape"/><rect width="10.99" height="4.31" x="-5.24" y="171.06" fill="#5fe4d4" class="coloraab6c2 svgShape"/><rect width="10.99" height="4.31" x="-5.24" y="186.75" fill="#5fe4d4" class="coloraab6c2 svgShape"/><rect width="10.99" height="4.31" x="-5.24" y="202.43" fill="#5fe4d4" class="coloraab6c2 svgShape"/><rect width="10.99" height="4.31" x="-5.24" y="218.11" fill="#5fe4d4" class="coloraab6c2 svgShape"/><rect width="192.05" height="218.97" x="-119.94" y="-.51" fill="#fff" class="colorffffff svgShape" opacity=".35"/><polygon fill="#fff" points="7.86 218.84 .41 218.84 68.91 29.14 68.91 44.43 7.86 218.84" class="colorffffff svgShape" opacity=".6"/><path fill="#fff" d="M80.13,43.32V40.81h-6.9V1.32H-315.1v5h4.18V8.1h123.86V40.81h-128v2.51h128v64.3h-128v2.51h128v64.31h-128v2.5h128v41.9H-310.88v1.45h-4.22v5.8H73.23v-.47h0V176.94h6.9v-2.5h-6.9V110.13h6.9v-2.51h-6.9V43.32Zm-199,66.81H-59v64.31h-59.82Zm0-2.51V43.32H-59v64.3Zm0-66.81V8.1H-59V40.81Zm0,136.13H-59v41.9h-59.8v1.45h0Zm64,41.9v-41.9H5v41.9Zm0-44.4V110.13H5v64.31Zm0-66.82V43.32H5v64.3Zm0-66.81V8.1H5V40.81ZM9.21,8.1H69V40.81H9.21Zm-192.07,0H-123V40.81h-59.81Zm0,35.22H-123v64.3h-59.81Zm0,66.81H-123v64.31h-59.81Zm0,66.81H-123v43.35h0v-1.45h-59.79ZM69,220.29h0v-1.45H9.21v-41.9H69Zm0-45.85H9.21V110.13H69Zm0-66.82H9.21V43.32H69Z" class="colorffffff svgShape"/></g><path fill="#e6f0ef" d="M118.14,16.27C148,22.15,163.23,56,211.3,86s37.49,147.54-38.43,128.39c-72.43-18.28-75.78-16.84-123.22-15.15C-9.72,201.39,23.68-2.34,118.14,16.27Z" class="colore6ebf0 svgShape"/><path fill="#e6f0ef" d="M199.1,65.83c-14-11.15-25.68-30.61-19-49.35s20.34,16.14,31.36,27.77C227.36,61.06,228.42,89.16,199.1,65.83Z" class="colore6ebf0 svgShape"/><rect width="207.14" height="1.44" x="25.85" y="216.55" fill="#8526fe" class="color000000 svgShape"/><g fill="#8526fe" class="color000000 svgShape" clip-path="url(#b)"><polygon fill="#ad59d4" points="68.08 77.21 68.08 69.45 80.94 69.45 80.94 32.4 84.49 32.4 84.49 69.45 98.34 69.45 98.34 77.21 105.76 77.21 105.76 232.58 52.25 232.58 52.25 77.21 68.08 77.21" class="colorc6d0db svgShape"/><rect width="7.42" height="139.76" x="52.25" y="77.21" fill="#5fe4d4" class="coloraab6c2 svgShape"/><rect width="53.51" height="118.36" x="79" y="114.22" fill="#ad59d4" class="colorc6d0db svgShape"/><rect width="7.42" height="118.36" x="79" y="114.22" fill="#5fe4d4" class="coloraab6c2 svgShape"/><rect width="7.68" height="3.19" x="117.37" y="119.26" fill="#5fe4d4" class="coloraab6c2 svgShape"/><rect width="7.68" height="3.19" x="104.44" y="119.26" fill="#5fe4d4" class="coloraab6c2 svgShape"/><rect width="7.68" height="3.19" x="117.37" y="130.86" fill="#5fe4d4" class="coloraab6c2 svgShape"/><rect width="7.68" height="3.19" x="104.44" y="130.86" fill="#5fe4d4" class="coloraab6c2 svgShape"/><rect width="7.68" height="3.19" x="91.51" y="130.86" fill="#5fe4d4" class="coloraab6c2 svgShape"/><rect width="7.68" height="3.19" x="117.37" y="142.47" fill="#5fe4d4" class="coloraab6c2 svgShape"/><rect width="7.68" height="3.19" x="91.51" y="142.47" fill="#5fe4d4" class="coloraab6c2 svgShape"/><rect width="7.68" height="3.19" x="104.44" y="148.27" fill="#5fe4d4" class="coloraab6c2 svgShape"/><rect width="7.68" height="3.19" x="117.37" y="154.07" fill="#5fe4d4" class="coloraab6c2 svgShape"/><rect width="7.68" height="3.19" x="104.44" y="159.87" fill="#5fe4d4" class="coloraab6c2 svgShape"/><rect width="7.68" height="3.19" x="117.37" y="165.67" fill="#5fe4d4" class="coloraab6c2 svgShape"/><rect width="7.68" height="3.19" x="91.51" y="165.67" fill="#5fe4d4" class="coloraab6c2 svgShape"/><rect width="7.68" height="3.19" x="117.37" y="176.39" fill="#5fe4d4" class="coloraab6c2 svgShape"/><rect width="7.68" height="3.19" x="104.44" y="176.39" fill="#5fe4d4" class="coloraab6c2 svgShape"/><rect width="7.68" height="3.19" x="117.37" y="188" fill="#5fe4d4" class="coloraab6c2 svgShape"/><rect width="7.68" height="3.19" x="104.44" y="188" fill="#5fe4d4" class="coloraab6c2 svgShape"/><rect width="7.68" height="3.19" x="91.51" y="188" fill="#5fe4d4" class="coloraab6c2 svgShape"/><rect width="7.68" height="3.19" x="117.37" y="199.6" fill="#5fe4d4" class="coloraab6c2 svgShape"/><rect width="7.68" height="3.19" x="91.51" y="199.6" fill="#5fe4d4" class="coloraab6c2 svgShape"/><rect width="7.68" height="3.19" x="104.44" y="205.4" fill="#5fe4d4" class="coloraab6c2 svgShape"/><rect width="7.68" height="3.19" x="91.51" y="205.4" fill="#5fe4d4" class="coloraab6c2 svgShape"/><rect width="7.68" height="3.19" x="117.37" y="211.2" fill="#5fe4d4" class="coloraab6c2 svgShape"/><rect width="7.68" height="3.19" x="104.44" y="217" fill="#5fe4d4" class="coloraab6c2 svgShape"/><rect width="7.68" height="3.19" x="117.37" y="222.81" fill="#5fe4d4" class="coloraab6c2 svgShape"/><rect width="7.68" height="3.19" x="91.51" y="222.81" fill="#5fe4d4" class="coloraab6c2 svgShape"/><rect width="53.51" height="118.36" x="207.03" y="114.22" fill="#ad59d4" class="colorc6d0db svgShape"/><rect width="7.42" height="118.36" x="207.03" y="114.22" fill="#5fe4d4" class="coloraab6c2 svgShape"/><rect width="71.79" height="174.66" x="131.02" y="57.92" fill="#ad59d4" class="colorc6d0db svgShape"/><rect width="7.42" height="174.66" x="131.02" y="57.92" fill="#5fe4d4" class="coloraab6c2 svgShape"/><rect width="11.21" height="4.65" x="184.04" y="66.29" fill="#5fe4d4" class="coloraab6c2 svgShape"/><rect width="11.21" height="4.65" x="165.16" y="66.29" fill="#5fe4d4" class="coloraab6c2 svgShape"/><rect width="11.21" height="4.65" x="184.04" y="83.23" fill="#5fe4d4" class="coloraab6c2 svgShape"/><rect width="11.21" height="4.65" x="165.16" y="83.23" fill="#5fe4d4" class="coloraab6c2 svgShape"/><rect width="11.21" height="4.65" x="146.28" y="83.23" fill="#5fe4d4" class="coloraab6c2 svgShape"/><rect width="11.21" height="4.65" x="184.04" y="100.17" fill="#5fe4d4" class="coloraab6c2 svgShape"/><rect width="11.21" height="4.65" x="146.28" y="100.17" fill="#5fe4d4" class="coloraab6c2 svgShape"/><rect width="11.21" height="4.65" x="165.16" y="108.65" fill="#5fe4d4" class="coloraab6c2 svgShape"/><rect width="11.21" height="4.65" x="184.04" y="117.12" fill="#5fe4d4" class="coloraab6c2 svgShape"/><rect width="11.21" height="4.65" x="165.16" y="125.59" fill="#5fe4d4" class="coloraab6c2 svgShape"/><rect width="11.21" height="4.65" x="184.04" y="134.06" fill="#5fe4d4" class="coloraab6c2 svgShape"/><rect width="11.21" height="4.65" x="146.28" y="134.06" fill="#5fe4d4" class="coloraab6c2 svgShape"/><rect width="11.21" height="4.65" x="184.04" y="149.72" fill="#5fe4d4" class="coloraab6c2 svgShape"/><rect width="11.21" height="4.65" x="165.16" y="149.72" fill="#5fe4d4" class="coloraab6c2 svgShape"/><rect width="11.21" height="4.65" x="184.04" y="166.66" fill="#5fe4d4" class="coloraab6c2 svgShape"/><rect width="11.21" height="4.65" x="165.16" y="166.66" fill="#5fe4d4" class="coloraab6c2 svgShape"/><rect width="11.21" height="4.65" x="146.28" y="166.66" fill="#5fe4d4" class="coloraab6c2 svgShape"/><rect width="11.21" height="4.65" x="184.04" y="183.61" fill="#5fe4d4" class="coloraab6c2 svgShape"/><rect width="11.21" height="4.65" x="146.28" y="183.61" fill="#5fe4d4" class="coloraab6c2 svgShape"/><rect width="11.21" height="4.65" x="165.16" y="192.08" fill="#5fe4d4" class="coloraab6c2 svgShape"/><rect width="11.21" height="4.65" x="146.28" y="192.08" fill="#5fe4d4" class="coloraab6c2 svgShape"/><rect width="11.21" height="4.65" x="184.04" y="200.55" fill="#5fe4d4" class="coloraab6c2 svgShape"/><rect width="11.21" height="4.65" x="165.16" y="209.02" fill="#5fe4d4" class="coloraab6c2 svgShape"/><rect width="11.21" height="4.65" x="184.04" y="217.49" fill="#5fe4d4" class="coloraab6c2 svgShape"/><rect width="11.21" height="4.65" x="146.28" y="217.49" fill="#5fe4d4" class="coloraab6c2 svgShape"/><rect width="70.36" height="161.64" x="243.89" y="70.94" fill="#ad59d4" class="colorc6d0db svgShape"/><rect width="7.27" height="161.64" x="243.89" y="70.94" fill="#5fe4d4" class="coloraab6c2 svgShape"/><rect width="10.99" height="4.31" x="277.35" y="78.68" fill="#5fe4d4" class="coloraab6c2 svgShape"/><rect width="10.99" height="4.31" x="277.35" y="94.36" fill="#5fe4d4" class="coloraab6c2 svgShape"/><rect width="10.99" height="4.31" x="258.85" y="94.36" fill="#5fe4d4" class="coloraab6c2 svgShape"/><rect width="10.99" height="4.31" x="258.85" y="110.04" fill="#5fe4d4" class="coloraab6c2 svgShape"/><rect width="10.99" height="4.31" x="277.35" y="117.88" fill="#5fe4d4" class="coloraab6c2 svgShape"/><rect width="10.99" height="4.31" x="277.35" y="133.56" fill="#5fe4d4" class="coloraab6c2 svgShape"/><rect width="10.99" height="4.31" x="258.85" y="141.4" fill="#5fe4d4" class="coloraab6c2 svgShape"/><rect width="10.99" height="4.31" x="277.35" y="155.89" fill="#5fe4d4" class="coloraab6c2 svgShape"/><rect width="10.99" height="4.31" x="277.35" y="171.58" fill="#5fe4d4" class="coloraab6c2 svgShape"/><rect width="10.99" height="4.31" x="258.85" y="171.58" fill="#5fe4d4" class="coloraab6c2 svgShape"/><rect width="10.99" height="4.31" x="258.85" y="187.26" fill="#5fe4d4" class="coloraab6c2 svgShape"/><rect width="10.99" height="4.31" x="277.35" y="195.1" fill="#5fe4d4" class="coloraab6c2 svgShape"/><rect width="10.99" height="4.31" x="258.85" y="195.1" fill="#5fe4d4" class="coloraab6c2 svgShape"/><rect width="10.99" height="4.31" x="277.35" y="210.78" fill="#5fe4d4" class="coloraab6c2 svgShape"/><rect width="10.99" height="4.31" x="258.85" y="218.62" fill="#5fe4d4" class="coloraab6c2 svgShape"/><rect width="45.32" height="110.25" x="16.5" y="122.33" fill="#ad59d4" class="colorc6d0db svgShape"/><rect width="4.68" height="110.25" x="16.5" y="122.33" fill="#5fe4d4" class="coloraab6c2 svgShape"/><rect width="7.08" height="2.94" x="49.96" y="127.61" fill="#5fe4d4" class="coloraab6c2 svgShape"/><rect width="7.08" height="2.94" x="38.05" y="127.61" fill="#5fe4d4" class="coloraab6c2 svgShape"/><rect width="7.08" height="2.94" x="49.96" y="138.3" fill="#5fe4d4" class="coloraab6c2 svgShape"/><rect width="7.08" height="2.94" x="38.05" y="138.3" fill="#5fe4d4" class="coloraab6c2 svgShape"/><rect width="7.08" height="2.94" x="26.13" y="138.3" fill="#5fe4d4" class="coloraab6c2 svgShape"/><rect width="7.08" height="2.94" x="49.96" y="149" fill="#5fe4d4" class="coloraab6c2 svgShape"/><rect width="7.08" height="2.94" x="26.13" y="149" fill="#5fe4d4" class="coloraab6c2 svgShape"/><rect width="7.08" height="2.94" x="38.05" y="154.35" fill="#5fe4d4" class="coloraab6c2 svgShape"/><rect width="7.08" height="2.94" x="49.96" y="159.7" fill="#5fe4d4" class="coloraab6c2 svgShape"/><rect width="7.08" height="2.94" x="38.05" y="165.04" fill="#5fe4d4" class="coloraab6c2 svgShape"/><rect width="7.08" height="2.94" x="49.96" y="170.39" fill="#5fe4d4" class="coloraab6c2 svgShape"/><rect width="7.08" height="2.94" x="26.13" y="170.39" fill="#5fe4d4" class="coloraab6c2 svgShape"/><rect width="7.08" height="2.94" x="49.96" y="180.27" fill="#5fe4d4" class="coloraab6c2 svgShape"/><rect width="7.08" height="2.94" x="38.05" y="180.27" fill="#5fe4d4" class="coloraab6c2 svgShape"/><rect width="7.08" height="2.94" x="49.96" y="190.97" fill="#5fe4d4" class="coloraab6c2 svgShape"/><rect width="7.08" height="2.94" x="38.05" y="190.97" fill="#5fe4d4" class="coloraab6c2 svgShape"/><rect width="7.08" height="2.94" x="26.13" y="190.97" fill="#5fe4d4" class="coloraab6c2 svgShape"/><rect width="7.08" height="2.94" x="49.96" y="201.66" fill="#5fe4d4" class="coloraab6c2 svgShape"/><rect width="7.08" height="2.94" x="26.13" y="201.66" fill="#5fe4d4" class="coloraab6c2 svgShape"/><rect width="7.08" height="2.94" x="38.05" y="207.01" fill="#5fe4d4" class="coloraab6c2 svgShape"/><rect width="7.08" height="2.94" x="26.13" y="207.01" fill="#5fe4d4" class="coloraab6c2 svgShape"/><rect width="7.08" height="2.94" x="49.96" y="212.36" fill="#5fe4d4" class="coloraab6c2 svgShape"/><rect width="7.08" height="2.94" x="38.05" y="217.71" fill="#5fe4d4" class="coloraab6c2 svgShape"/><rect width="7.08" height="2.94" x="49.96" y="223.06" fill="#5fe4d4" class="coloraab6c2 svgShape"/><rect width="7.08" height="2.94" x="26.13" y="223.06" fill="#5fe4d4" class="coloraab6c2 svgShape"/><rect width="192.05" height="218.97" x="-11.9" y="4.33" fill="#fff" class="colorffffff svgShape" opacity=".35"/><polygon fill="#fff" points="54.22 219.35 39.31 219.35 119.22 6.84 134.12 6.84 54.22 219.35" class="colorffffff svgShape" opacity=".5"/><polygon fill="#fff" points="27.9 219.35 20.45 219.35 100.35 6.84 107.8 6.84 27.9 219.35" class="colorffffff svgShape" opacity=".5"/><polygon fill="#fff" points="116.89 219.35 109.44 219.35 177.94 29.66 177.94 44.94 116.89 219.35" class="colorffffff svgShape" opacity=".5"/><rect width="192.05" height="218.97" x="181.16" fill="#fff" class="colorffffff svgShape" opacity=".35"/><polygon fill="#fff" points="212.93 219.35 198.02 219.35 277.93 6.84 292.83 6.84 212.93 219.35" class="colorffffff svgShape" opacity=".5"/><polygon fill="#fff" points="186.61 219.35 179.15 219.35 259.06 6.84 266.51 6.84 186.61 219.35" class="colorffffff svgShape" opacity=".5"/><path fill="#fff" d="M381.23,43.83v-2.5h-6.9V1.83H-14v5h4.18V8.61H114V41.33H-14v2.5H114v64.31H-14v2.5H114V175H-14v2.5H114v41.9H-9.78v1.45H-14v5.8H374.33v-.47h0V177.45h6.9V175h-6.9V110.64h6.9v-2.5h-6.9V43.83Zm-199,66.81h59.82V175H182.27Zm0-2.5V43.83h59.82v64.31Zm0-66.81V8.61h59.82V41.33Zm0,136.12h59.82v41.9h-59.8v1.45h0Zm64,41.9v-41.9h59.82v41.9Zm0-44.4V110.64h59.82V175Zm0-66.81V43.83h59.82v64.31Zm0-66.81V8.61h59.82V41.33Zm64-32.72h59.82V41.33H310.31Zm-192.07,0h59.81V41.33H118.24Zm0,35.22h59.81v64.31H118.24Zm0,66.81h59.81V175H118.24Zm0,66.81h59.81V220.8h0v-1.45H118.24ZM370.13,220.8h0v-1.45H310.31v-41.9h59.82Zm0-45.85H310.31V110.64h59.82Zm0-66.81H310.31V43.83h59.82Z" class="colorffffff svgShape"/></g><path fill="#fff" d="M87.82,166.13a3.74,3.74,0,0,1-3.73-3.74V51.15a4.84,4.84,0,0,1,4.83-4.84H241.63a4.84,4.84,0,0,1,4.84,4.83V162.39a3.75,3.75,0,0,1-3.74,3.74Z" class="colorffffff svgShape"/><path fill="#8526fe" d="M241.63,46.55a4.6,4.6,0,0,1,4.59,4.59V162.39a3.49,3.49,0,0,1-3.49,3.49H87.82a3.49,3.49,0,0,1-3.49-3.49V51.15a4.6,4.6,0,0,1,4.59-4.6Zm0-.49H88.92a5.09,5.09,0,0,0-5.08,5.09V162.39a4,4,0,0,0,4,4H242.73a4,4,0,0,0,4-4V51.14a5.09,5.09,0,0,0-5.09-5.08Z" class="color000000 svgShape"/><path fill="#8526fe" d="M246.71,63.57H83.84V51.14a5.09,5.09,0,0,1,5.08-5.08H241.63a5.08,5.08,0,0,1,5.08,5.08Z" class="color000000 svgShape"/><path fill="#02cfb6" d="M111.85,54.82a2.69,2.69,0,1,1,2.69,2.69A2.69,2.69,0,0,1,111.85,54.82Z" class="color027ccf svgShape"/><path fill="#ff9a01" d="M101.5,54.82a2.69,2.69,0,1,1,2.69,2.69A2.69,2.69,0,0,1,101.5,54.82Z" class="colorff6501 svgShape"/><path fill="#fff" d="M93.84,57.26a2.45,2.45,0,1,1,2.45-2.44A2.45,2.45,0,0,1,93.84,57.26Z" class="colorffffff svgShape"/><path fill="#8526fe" d="M93.84,52.62a2.2,2.2,0,1,1-2.2,2.2,2.19,2.19,0,0,1,2.2-2.2Zm0-.49a2.69,2.69,0,1,0,2.69,2.69,2.69,2.69,0,0,0-2.69-2.69Z" class="color000000 svgShape"/><polygon fill="#fff" points="234.24 56.65 236.15 54.75 234.24 52.85 235.23 51.87 237.13 53.77 239.03 51.87 240.02 52.85 238.11 54.75 240.02 56.65 239.03 57.64 237.13 55.74 235.23 57.64 234.24 56.65" class="colorffffff svgShape"/><path fill="#8526fe" d="M235.23,52.21l1.55,1.56.35.34.35-.34L239,52.21l.64.64-1.56,1.56-.34.34.34.35,1.56,1.55-.64.64-1.55-1.55-.35-.35-.35.35-1.55,1.55-.64-.64,1.56-1.55.34-.35-.34-.34-1.56-1.56.64-.64Zm3.8-.69-1.9,1.9-1.9-1.9-1.33,1.33,1.9,1.9-1.9,1.9L235.23,58l1.9-1.91L239,58l1.33-1.34-1.9-1.9,1.9-1.9L239,51.52Z" class="color000000 svgShape"/><g fill="#8526fe" class="color000000 svgShape" clip-path="url(#c)"><path fill="#5fe4d4" d="M249.15,89a.28.28,0,0,0,.24-.31.27.27,0,0,0-.24-.3h-2.74V77.53h2.74a.28.28,0,0,0,.24-.31.27.27,0,0,0-.24-.3h-2.74V66.81a.27.27,0,0,0-.24-.3c-.14,0-.24.13-.24.3V76.92H238.3V66.81a.25.25,0,1,0-.48,0V76.92H230V66.81a.27.27,0,0,0-.24-.3c-.14,0-.24.13-.24.3V76.92h-7.63V66.81a.25.25,0,1,0-.48,0V76.92h-7.62V66.81a.27.27,0,0,0-.24-.3c-.14,0-.24.13-.24.3V76.92H205.7V66.81a.25.25,0,1,0-.48,0V76.92H197.6V66.81a.27.27,0,0,0-.24-.3c-.14,0-.24.13-.24.3V76.92h-7.63V66.81c0-.17-.1-.3-.24-.3a.27.27,0,0,0-.24.3V76.92h-7.62V66.81a.25.25,0,1,0-.48,0V76.92h-7.63V66.81c0-.17-.1-.3-.24-.3a.27.27,0,0,0-.24.3V76.92h-7.62V66.81a.27.27,0,0,0-.24-.3h0c-.14,0-.24.13-.24.3V76.92h-7.63V66.81a.25.25,0,1,0-.48,0V76.92h-7.8V66.81a.25.25,0,1,0-.48,0V76.92h-7.63V66.81c0-.17-.1-.3-.24-.3a.27.27,0,0,0-.24.3V76.92h-7.62V66.81a.25.25,0,1,0-.48,0V76.92h-7.63V66.81c0-.17-.1-.3-.24-.3a.27.27,0,0,0-.24.3V76.92h-7.62V66.81a.25.25,0,1,0-.48,0V76.92h-7.63V66.81c0-.17-.1-.3-.24-.3a.27.27,0,0,0-.24.3V76.92h-7.62V66.81a.25.25,0,1,0-.48,0V76.92H92.06V66.81a.25.25,0,1,0-.49,0V76.92H84V66.81a.25.25,0,1,0-.48,0V76.92H80.61a.27.27,0,0,0-.24.3.28.28,0,0,0,.24.31h2.86V88.42H80.61a.27.27,0,0,0-.24.3.28.28,0,0,0,.24.31h2.86V99.91H80.61a.32.32,0,0,0,0,.62h2.86v10.88H80.61a.32.32,0,0,0,0,.62h2.86v9.79H80.61a.28.28,0,0,0-.24.3.28.28,0,0,0,.24.31h2.86v10.89H80.61a.27.27,0,0,0-.24.3.28.28,0,0,0,.24.31h2.86v10.88H80.61a.32.32,0,0,0,0,.62h2.86v10.88H80.61a.32.32,0,0,0,0,.62h2.86v7.8a.25.25,0,1,0,.48,0v-7.8h7.62v7.8a.25.25,0,1,0,.49,0v-7.8h7.62v7.8a.25.25,0,1,0,.48,0v-7.8h7.62v7.8a.28.28,0,0,0,.24.31c.14,0,.24-.14.24-.31v-7.8h7.63v7.8a.25.25,0,1,0,.48,0v-7.8H124v7.8a.28.28,0,0,0,.24.31c.14,0,.24-.14.24-.31v-7.8h7.63v7.8a.25.25,0,1,0,.48,0v-7.8h7.62v7.8a.28.28,0,0,0,.24.31c.14,0,.24-.14.24-.31v-7.8h7.63v7.8a.25.25,0,1,0,.48,0v-7.8h7.8v7.8a.25.25,0,1,0,.48,0v-7.8h7.63v7.8c0,.17.1.31.24.31h0a.28.28,0,0,0,.24-.31v-7.8h7.62v7.8a.28.28,0,0,0,.24.31c.14,0,.24-.14.24-.31v-7.8h7.63v7.8a.25.25,0,1,0,.48,0v-7.8H189v7.8a.28.28,0,0,0,.24.31c.14,0,.24-.14.24-.31v-7.8h7.63v7.8c0,.17.1.31.24.31a.28.28,0,0,0,.24-.31v-7.8h7.62v7.8a.25.25,0,1,0,.48,0v-7.8h7.63v7.8c0,.17.1.31.24.31a.28.28,0,0,0,.24-.31v-7.8h7.62v7.8a.25.25,0,1,0,.48,0v-7.8h7.63v7.8c0,.17.1.31.24.31a.28.28,0,0,0,.24-.31v-7.8h7.8v7.8a.25.25,0,1,0,.48,0v-7.8h7.63v7.8c0,.17.1.31.24.31a.28.28,0,0,0,.24-.31v-7.8h2.74a.32.32,0,0,0,0-.62h-2.74V145.43h2.74a.32.32,0,0,0,0-.62h-2.74V133.93h2.74a.28.28,0,0,0,.24-.31.27.27,0,0,0-.24-.3h-2.74V122.43h2.74a.28.28,0,0,0,.24-.31.28.28,0,0,0-.24-.3h-2.74V112h2.74a.32.32,0,0,0,0-.62h-2.74V100.53h2.74a.32.32,0,0,0,0-.62h-2.74V89ZM238.3,77.53h7.63V88.42H238.3Zm0,11.5h7.63V99.91H238.3Zm0,11.5h7.63v10.88H238.3Zm-8.28-23h7.8V88.42H230ZM230,89h7.8V99.91H230Zm0,11.5h7.8v10.88H230Zm-8.11-23h7.63V88.42h-7.63Zm0,11.5h7.63V99.91h-7.63Zm0,11.5h7.63v10.88h-7.63Zm-8.1-23h7.62V88.42h-7.62Zm0,11.5h7.62V99.91h-7.62Zm0,11.5h7.62v10.88h-7.62Zm-8.11-23h7.63V88.42H205.7Zm0,11.5h7.63V99.91H205.7Zm0,11.5h7.63v10.88H205.7Zm-8.1-23h7.62V88.42H197.6Zm0,11.5h7.62V99.91H197.6Zm0,11.5h7.62v10.88H197.6Zm-8.11-23h7.63V88.42h-7.63Zm0,11.5h7.63V99.91h-7.63Zm0,11.5h7.63v10.88h-7.63Zm-8.1-23H189V88.42h-7.62Zm0,11.5H189V99.91h-7.62Zm0,11.5H189v10.88h-7.62Zm-8.11-23h7.63V88.42h-7.63Zm0,11.5h7.63V99.91h-7.63Zm0,11.5h7.63v10.88h-7.63Zm-8.1-23h7.62V88.42h-7.62Zm0,11.5h7.62V99.91h-7.62Zm0,11.5h7.62v10.88h-7.62Zm-8.11-23h7.63V88.42h-7.63Zm0,11.5h7.63V99.91h-7.63Zm0,11.5h7.63v10.88h-7.63Zm-8.28-23h7.8V88.42h-7.8Zm0,11.5h7.8V99.91h-7.8Zm0,11.5h7.8v10.88h-7.8Zm-8.11-23h7.63V88.42h-7.63Zm0,11.5h7.63V99.91h-7.63Zm0,11.5h7.63v10.88h-7.63Zm-8.1-23h7.62V88.42h-7.62Zm0,11.5h7.62V99.91h-7.62Zm0,11.5h7.62v10.88h-7.62Zm-8.11-23h7.63V88.42h-7.63Zm0,11.5h7.63V99.91h-7.63Zm0,11.5h7.63v10.88h-7.63Zm-8.1-23H124V88.42h-7.62Zm0,11.5H124V99.91h-7.62Zm0,11.5H124v10.88h-7.62Zm-8.11-23h7.63V88.42h-7.63Zm0,11.5h7.63V99.91h-7.63Zm0,11.5h7.63v10.88h-7.63Zm-8.1-23h7.62V88.42h-7.62Zm0,11.5h7.62V99.91h-7.62Zm0,11.5h7.62v10.88h-7.62Zm-8.1-23h7.62V88.42H92.06Zm0,11.5h7.62V99.91H92.06Zm0,11.5h7.62v10.88H92.06ZM84,77.53h7.62V88.42H84ZM84,89h7.62V99.91H84Zm0,11.5h7.62v10.88H84Zm7.62,55.78H84V145.43h7.62Zm0-11.5H84V133.93h7.62Zm0-11.49H84V122.43h7.62Zm0-11.5H84V112h7.62v9.79Zm8.11,34.49H92.06V145.43h7.62Zm0-11.5H92.06V133.93h7.62Zm0-11.49H92.06V122.43h7.62Zm0-11.5H92.06V112h7.62v9.79Zm8.1,34.49h-7.62V145.43h7.62Zm0-11.5h-7.62V133.93h7.62Zm0-11.49h-7.62V122.43h7.62Zm0-11.5h-7.62V112h7.62v9.79Zm8.11,34.49h-7.63V145.43h7.63Zm0-11.5h-7.63V133.93h7.63Zm0-11.49h-7.63V122.43h7.63Zm0-11.5h-7.63V112h7.63v9.79Zm8.1,34.49h-7.62V145.43H124Zm0-11.5h-7.62V133.93H124Zm0-11.49h-7.62V122.43H124Zm0-11.5h-7.62V112H124v9.79Zm8.11,34.49h-7.63V145.43h7.63Zm0-11.5h-7.63V133.93h7.63Zm0-11.49h-7.63V122.43h7.63Zm0-11.5h-7.63V112h7.63v9.79Zm8.1,34.49h-7.62V145.43h7.62Zm0-11.5h-7.62V133.93h7.62Zm0-11.49h-7.62V122.43h7.62Zm0-11.5h-7.62V112h7.62v9.79Zm8.11,34.49h-7.63V145.43h7.63Zm0-11.5h-7.63V133.93h7.63Zm0-11.49h-7.63V122.43h7.63Zm0-11.5h-7.63V112h7.63v9.79Zm8.28,34.49h-7.8V145.43h7.8Zm0-11.5h-7.8V133.93h7.8Zm0-11.49h-7.8V122.43h7.8Zm0-11.5h-7.8V112h7.8v9.79Zm8.11,34.49h-7.63V145.43h7.63Zm0-11.5h-7.63V133.93h7.63Zm0-11.49h-7.63V122.43h7.63Zm0-11.5h-7.63V112h7.63v9.79Zm8.1,34.49h-7.62V145.43h7.62Zm0-11.5h-7.62V133.93h7.62Zm0-11.49h-7.62V122.43h7.62Zm0-11.5h-7.62V112h7.62v9.79Zm8.11,34.49h-7.63V145.43h7.63Zm0-11.5h-7.63V133.93h7.63Zm0-11.49h-7.63V122.43h7.63Zm0-11.5h-7.63V112h7.63v9.79Zm8.1,34.49h-7.62V145.43H189Zm0-11.5h-7.62V133.93H189Zm0-11.49h-7.62V122.43H189Zm0-11.5h-7.62V112H189v9.79Zm8.11,34.49h-7.63V145.43h7.63Zm0-11.5h-7.63V133.93h7.63Zm0-11.49h-7.63V122.43h7.63Zm0-11.5h-7.63V112h7.63v9.79Zm8.1,34.49H197.6V145.43h7.62Zm0-11.5H197.6V133.93h7.62Zm0-11.49H197.6V122.43h7.62Zm0-11.5H197.6V112h7.62v9.79Zm8.11,34.49H205.7V145.43h7.63Zm0-11.5H205.7V133.93h7.63Zm0-11.49H205.7V122.43h7.63Zm0-11.5H205.7V112h7.63v9.79Zm8.1,34.49h-7.62V145.43h7.62Zm0-11.5h-7.62V133.93h7.62Zm0-11.49h-7.62V122.43h7.62Zm0-11.5h-7.62V112h7.62v9.79Zm8.11,34.49h-7.63V145.43h7.63Zm0-11.5h-7.63V133.93h7.63Zm0-11.49h-7.63V122.43h7.63Zm0-11.5h-7.63V112h7.63v9.79Zm8.28,34.49H230V145.43h7.8Zm0-11.5H230V133.93h7.8Zm0-11.49H230V122.43h7.8Zm0-11.5H230V112h7.8v9.79Zm8.11,34.49H238.3V145.43h7.63Zm0-11.5H238.3V133.93h7.63Zm0-11.49H238.3V122.43h7.63Zm0-11.5H238.3V112h7.63v9.79Z" class="coloraab6c2 svgShape" opacity=".5"/></g><polygon fill="#ff9a01" points="98.64 150.26 96.09 150.25 96.06 145.24 95.13 145.23 95.16 150.24 92.6 150.23 92.62 153.34 95.17 153.35 95.22 162.63 96.15 162.63 96.1 153.36 98.66 153.37 98.64 150.26" class="colorff6501 svgShape"/><polygon fill="#d8a353" points="107.09 144.19 104.54 144.18 104.53 142.41 103.6 142.41 103.61 144.17 101.06 144.16 101.09 151.76 103.65 151.78 103.68 158.73 104.61 158.74 104.58 151.78 107.13 151.8 107.09 144.19" class="colorffc64c svgShape"/><polygon fill="#d8a353" points="115.6 125.2 113.04 125.19 113.02 121.71 112.09 121.7 112.11 125.18 109.56 125.17 109.66 145.75 112.22 145.76 112.25 153.32 113.18 153.32 113.14 145.77 115.7 145.78 115.6 125.2" class="colorffc64c svgShape"/><polygon fill="#ff9a01" points="124.18 105.59 121.62 105.58 121.58 97.04 120.65 97.04 120.69 105.57 118.14 105.56 118.19 116.55 120.75 116.56 120.8 126.68 121.73 126.68 121.68 116.57 124.23 116.58 124.18 105.59" class="colorff6501 svgShape"/><polygon fill="#d8a353" points="132.69 112.36 130.14 112.34 130.12 108.36 129.19 108.35 129.21 112.34 126.65 112.32 126.71 123.99 129.27 124.01 129.32 134.12 130.25 134.13 130.2 124.01 132.75 124.03 132.69 112.36" class="colorffc64c svgShape"/><polygon fill="#d8a353" points="141.19 121.72 138.64 121.7 138.61 116.42 137.68 116.41 137.71 121.7 135.16 121.69 135.19 129.62 137.75 129.63 137.81 142.29 138.74 142.3 138.68 129.64 141.23 129.65 141.19 121.72" class="colorffc64c svgShape"/><polygon fill="#ff9a01" points="149.62 121.97 147.06 121.96 147.04 117.65 146.11 117.64 146.13 121.95 143.58 121.94 143.7 145.59 146.25 145.61 146.3 154.51 147.23 154.52 147.18 145.61 149.74 145.63 149.62 121.97" class="colorff6501 svgShape"/><polygon fill="#ff9a01" points="158.1 108.68 155.54 108.66 155.5 99.2 154.57 99.19 154.62 108.66 152.06 108.64 152.1 117.41 154.66 117.42 154.68 122.02 155.61 122.02 155.59 117.43 158.14 117.44 158.1 108.68" class="colorff6501 svgShape"/><polygon fill="#ff9a01" points="166.62 112.91 164.07 112.89 164.03 105.66 163.1 105.65 163.14 112.89 160.58 112.87 160.63 123.1 163.19 123.12 163.22 128.4 164.14 128.41 164.12 123.12 166.67 123.14 166.62 112.91" class="colorff6501 svgShape"/><polygon fill="#d8a353" points="175.15 93.86 172.59 93.85 172.54 83.41 171.61 83.41 171.66 93.84 169.11 93.83 169.23 117.3 171.78 117.32 171.85 131.73 172.78 131.74 172.71 117.32 175.27 117.34 175.15 93.86" class="colorffc64c svgShape"/><polygon fill="#ff9a01" points="183.69 106.64 181.13 106.62 181.1 100.64 180.18 100.63 180.21 106.61 177.65 106.6 177.79 133.26 180.34 133.28 180.38 140.38 181.31 140.38 181.27 133.28 183.82 133.3 183.69 106.64" class="colorff6501 svgShape"/><polygon fill="#d8a353" points="192.16 132.36 189.6 132.35 189.57 126.36 188.64 126.36 188.67 132.34 186.12 132.33 186.18 144.16 188.73 144.17 188.74 145.79 189.67 145.8 189.66 144.18 192.22 144.19 192.16 132.36" class="colorffc64c svgShape"/><polygon fill="#d8a353" points="200.54 101.93 197.99 101.91 197.96 97.04 197.03 97.04 197.06 101.91 194.5 101.89 194.61 123.69 197.17 123.71 197.2 129.83 198.13 129.84 198.1 123.71 200.65 123.73 200.54 101.93" class="colorffc64c svgShape"/><polygon fill="#d8a353" points="209.01 100.56 206.46 100.55 206.45 98.74 205.52 98.73 205.53 100.54 202.97 100.53 203.02 110.55 205.58 110.56 205.61 116.41 206.54 116.41 206.51 110.57 209.06 110.58 209.01 100.56" class="colorffc64c svgShape"/><polygon fill="#ff9a01" points="217.42 80.85 214.86 80.83 214.84 75.54 213.91 75.54 213.93 80.83 211.38 80.81 211.46 97.6 214.02 97.62 214.05 103.18 214.98 103.19 214.95 97.62 217.5 97.64 217.42 80.85" class="colorff6501 svgShape"/><polygon fill="#ff9a01" points="225.83 96.15 223.27 96.14 223.25 92.1 222.32 92.09 222.34 96.13 219.79 96.11 219.87 112.84 222.43 112.86 222.5 127.74 223.43 127.74 223.36 112.86 225.91 112.88 225.83 96.15" class="colorff6501 svgShape"/><polygon fill="#d8a353" points="234.24 73.23 231.69 73.22 231.67 69.32 230.74 69.32 230.76 73.21 228.2 73.2 228.35 102.2 230.91 102.22 230.94 109.4 231.87 109.41 231.83 102.22 234.39 102.24 234.24 73.23" class="colorffc64c svgShape"/><polygon fill="#ff9a01" points="242.75 83.77 240.2 83.76 240.17 77.77 239.24 77.77 239.27 83.75 236.71 83.74 236.75 90.46 239.3 90.48 239.33 95.77 240.26 95.77 240.23 90.48 242.79 90.5 242.75 83.77" class="colorff6501 svgShape"/><path fill="#8526fe" d="M229.11,185.55c5.07-.73,9.51-5.54,10.55-12S238,161.3,233.49,159l.07-.45-2.83-.46c-6.15-1-12.13,4.35-13.35,11.93s2.78,14.53,8.93,15.52L229,186Z" class="color000000 svgShape"/><path fill="#ff9a01" d="M242.49,174.05c-1.22,7.58-7.31,13-13.46,12s-10-8-8.81-15.57,7.19-12.92,13.34-11.93S243.71,166.47,242.49,174.05Z" class="colorff6501 svgShape"/><path fill="#ff9a01" d="M240.5,173.74c-1,6.22-6,10.65-11.05,9.84s-8.25-6.56-7.24-12.79,5.91-10.61,11-9.79S241.5,167.51,240.5,173.74Z" class="colorff6501 svgShape"/><path fill="#8526fe" d="M235.55,175.81a2.78,2.78,0,0,0,.09-1,3,3,0,0,0-.2-.89,3.88,3.88,0,0,0-.46-.79,7.29,7.29,0,0,0-.65-.72c-.24-.23-.49-.45-.76-.67l-.81-.64,1.1-4.29a2.37,2.37,0,0,1,1.08.9,3.06,3.06,0,0,1,.44,1.43l1.54.4a4.25,4.25,0,0,0-.11-1.49,3.7,3.7,0,0,0-.54-1.19,4.05,4.05,0,0,0-.88-.92,5.07,5.07,0,0,0-1.14-.64l.36-1.37-1.56-.41-.35,1.38a5,5,0,0,0-1.4.05,4.25,4.25,0,0,0-1.24.44,3.28,3.28,0,0,0-1,.79l-.18.24a3.05,3.05,0,0,0-.4.9,2.61,2.61,0,0,0-.08.46,2.69,2.69,0,0,0,0,.9,3.49,3.49,0,0,0,.5,1.16c.12.16.24.33.38.49l.21.23.25.25,0,0c.35.31.71.62,1.09.92l-.93,3.62,0,.15h0l0,.15-.19.74a2.37,2.37,0,0,1-.62-.56,2.78,2.78,0,0,1-.33-.51,1.54,1.54,0,0,1-.08-.19h0v0l0-.14a4.33,4.33,0,0,1-.18-.75,4.66,4.66,0,0,1,0-1l-1.64-.42a5.54,5.54,0,0,0,0,1.47v0a.43.43,0,0,1,0,.11h0a.07.07,0,0,1,0,.05.35.35,0,0,0,0,.11.07.07,0,0,0,0,.05,5,5,0,0,0,.42,1.24,2.75,2.75,0,0,0,.17.29l.09.16.1.16a4.58,4.58,0,0,0,.48.59,4.32,4.32,0,0,0,1.17.86l-.57,2.19,1.56.4.55-2.15a5.77,5.77,0,0,0,1.44,0,4.26,4.26,0,0,0,1.39-.37,3.54,3.54,0,0,0,1.14-.87A3.38,3.38,0,0,0,235.55,175.81Zm-5.42-8.1a1.62,1.62,0,0,1,.73-1,2.34,2.34,0,0,1,1.44-.28l-1,3.68a6.56,6.56,0,0,1-.6-.57,2.8,2.8,0,0,1-.43-.58,2,2,0,0,1-.22-.61A1.59,1.59,0,0,1,230.13,167.71Zm3.46,8.42a1.93,1.93,0,0,1-.59.51,2.55,2.55,0,0,1-.8.3,3.32,3.32,0,0,1-.95,0l1.07-4.14a8.22,8.22,0,0,1,.69.62,3.79,3.79,0,0,1,.57.65,2.55,2.55,0,0,1,.33.66,1.21,1.21,0,0,1,0,.68A2.06,2.06,0,0,1,233.59,176.13Z" class="color000000 svgShape"/><path fill="#8526fe" d="M223.46,179.27a13.1,13.1,0,0,1-1.37-8.49c1-6.28,6-10.72,11.1-9.9a8.55,8.55,0,0,1,6,4.4,13.44,13.44,0,0,1-2.64,16.11,8.65,8.65,0,0,1-7.14,2.3,6.91,6.91,0,0,1-1.5-.4A8.72,8.72,0,0,1,223.46,179.27Zm16.93-5.55A12.68,12.68,0,0,0,239,165.4a8.33,8.33,0,0,0-5.86-4.29c-5-.8-9.84,3.55-10.83,9.7a12.87,12.87,0,0,0,1.34,8.35,8.21,8.21,0,0,0,5.81,4.31,8.45,8.45,0,0,0,6.95-2.26,12.69,12.69,0,0,0,4-7.49Z" class="color000000 svgShape"/><path fill="#8526fe" d="M194.15,71.93c5.2-4.84,6.46-13.83,2.56-22s-11.6-12.72-18.59-11.77l-.27-.57-3.59,1.72c-7.8,3.74-10.38,14.56-5.77,24.16s14.66,14.35,22.45,10.61l3.5-1.57Z" class="color000000 svgShape"/><path fill="#ff9a01" d="M200.3,48.25c4.61,9.6,1.93,20.56-5.86,24.3s-17.75-1.16-22.36-10.76-2-20.42,5.77-24.16S195.69,38.64,200.3,48.25Z" class="colorff6501 svgShape"/><path fill="#ff9a01" d="M197.78,49.46c3.78,7.89,1.59,16.9-4.81,20s-14.58-1-18.37-8.85-1.66-16.76,4.74-19.83S194,41.58,197.78,49.46Z" class="colorff6501 svgShape"/><path fill="#8526fe" d="M193.77,55.75a4.24,4.24,0,0,0-.66-1.21,4.17,4.17,0,0,0-.94-.84,6,6,0,0,0-1.15-.54,10.45,10.45,0,0,0-1.31-.31,12.32,12.32,0,0,0-1.39-.15c-.48,0-.95-.07-1.44-.09l-2.13-5.77a3.31,3.31,0,0,1,1.94.17,4.27,4.27,0,0,1,1.63,1.29l2.07-.77a6,6,0,0,0-1.3-1.6,5.28,5.28,0,0,0-1.56-.94,5.37,5.37,0,0,0-1.73-.34,6.87,6.87,0,0,0-1.8.17L183.32,43l-2.1.78.69,1.85a6.9,6.9,0,0,0-1.55,1.16,6,6,0,0,0-1.07,1.48,4.84,4.84,0,0,0-.49,1.68c0,.14,0,.28,0,.41a4,4,0,0,0,.27,1.35,4.56,4.56,0,0,0,.26.59,3.64,3.64,0,0,0,.75,1,4.55,4.55,0,0,0,1.49.92,5.62,5.62,0,0,0,.82.27l.43.1.47.08h.08c.64.09,1.3.15,2,.2l1.8,4.85.08.21h0l.08.2.36,1a3.75,3.75,0,0,1-1.15-.15,4,4,0,0,1-.77-.33,1.88,1.88,0,0,1-.24-.14h0l-.05,0a.88.88,0,0,1-.17-.12,4.74,4.74,0,0,1-.79-.71,6.09,6.09,0,0,1-.81-1.11l-2.2.82A8.35,8.35,0,0,0,182.66,61s0,0,0,0a.55.55,0,0,0,.1.11v0a.12.12,0,0,1,.05,0,.69.69,0,0,0,.13.11s0,0,0,.05a7,7,0,0,0,1.46,1.06,4.11,4.11,0,0,0,.42.21,1.46,1.46,0,0,0,.23.1l.24.11a6.21,6.21,0,0,0,1,.29,5.89,5.89,0,0,0,2,.07l1.09,2.94,2.08-.78-1.06-2.89a8.39,8.39,0,0,0,1.66-1.1,5.64,5.64,0,0,0,1.28-1.53,4.69,4.69,0,0,0,.62-1.88A4.61,4.61,0,0,0,193.77,55.75Zm-12.58-5a2.19,2.19,0,0,1,.06-1.7,3.13,3.13,0,0,1,1.42-1.45l1.82,4.94a9.26,9.26,0,0,1-1.13-.17,4.24,4.24,0,0,1-1-.32,2.66,2.66,0,0,1-.74-.52A2.19,2.19,0,0,1,181.19,50.79Zm10.61,6.87a2.81,2.81,0,0,1-.27,1.05,3.57,3.57,0,0,1-.68,1,4.22,4.22,0,0,1-1.07.78l-2.05-5.57a10.66,10.66,0,0,1,1.28.16,5.53,5.53,0,0,1,1.15.29,3.16,3.16,0,0,1,.91.5,1.7,1.7,0,0,1,.56.76A3,3,0,0,1,191.8,57.66Z" class="color000000 svgShape"/><path fill="#8526fe" d="M182.73,69.26a18.22,18.22,0,0,1-8.27-8.61c-3.82-7.95-1.66-16.95,4.81-20a11.83,11.83,0,0,1,10.34.25,18.62,18.62,0,0,1,9.74,20.44A12,12,0,0,1,193,69.57a10.61,10.61,0,0,1-2,.73A12.14,12.14,0,0,1,182.73,69.26Zm14.91-19.73a17.63,17.63,0,0,0-8.17-8.39,11.49,11.49,0,0,0-10.06-.25c-6.31,3-8.4,11.83-4.66,19.63A17.86,17.86,0,0,0,182.88,69a11.35,11.35,0,0,0,10,.31A11.63,11.63,0,0,0,199,61.21a17.6,17.6,0,0,0-1.4-11.68Z" class="color000000 svgShape"/><polygon fill="#8526fe" points="66.28 216.55 68.7 217.99 60.35 217.99 58.09 216.55 48.65 210.52 52.15 208.15 66.28 216.55" class="color000000 svgShape"/><path fill="#8526fe" d="M242.87,119.06l-1.5,2h0l-2.54,3.31h0l-3.91,5.09h0l-4.32,5.62-59.76,81.49L169.76,218H158.49l-.85-.55h0l-1.36-.89-41.82-27.12-2.17,4L97.73,216.55l-.9,1.44H85.12l.91-1.44,19.66-31.07h0l3-5.5a3.91,3.91,0,0,1,.26-.44,5.21,5.21,0,0,1,2.85-2.1,3.75,3.75,0,0,1,1.09-.17h.3a4.37,4.37,0,0,1,2.4.71l43.36,28.1,5.2,3.38,45-62.37v0L217.69,136l10.9-14.19h0l5.06-6.58h0l.49-.66h0l1.13-1.46a5.14,5.14,0,0,1,1.62-1.41h0a4.64,4.64,0,0,1,5.22.33,4.49,4.49,0,0,1,1.37,1.82A5.3,5.3,0,0,1,242.87,119.06Z" class="color000000 svgShape"/><path fill="#8526fe" d="M248,144.92a4.66,4.66,0,0,1-4.6-4.29l-2.76-27.15L210.36,121a4.63,4.63,0,0,1-5.68-3.74,5.36,5.36,0,0,1,3.87-6.12L244,102.33a4.59,4.59,0,0,1,3.81.72,4.77,4.77,0,0,1,1.93,3.43l3.32,32.6a5.34,5.34,0,0,1-4.33,5.79A6.3,6.3,0,0,1,248,144.92Z" class="color000000 svgShape"/><polygon fill="#8526fe" points="103.58 177.25 113.16 177.25 114.18 186.33 105.78 185.81 103.58 177.25" class="color000000 svgShape"/><polygon fill="#8526fe" points="166.47 216.72 166.04 217.99 157.68 217.99 157.63 217.44 157.56 216.55 157.41 214.76 163.87 216.16 165.68 216.55 166.47 216.72" class="color000000 svgShape"/><polygon fill="#8526fe" points="208.8 147.26 221.7 140.69 237.32 114.3 229.29 114.93 218.42 130.78 208.8 147.26" class="color000000 svgShape"/><polygon fill="#8526fe" points="231.61 102.19 245.37 102.19 244.23 110.06 229.06 110.38 231.61 102.19" class="color000000 svgShape"/><path fill="#8526fe" d="M237,144.87h11s-2.58-32.22-2.59-32.22l-9.74,6.07-1,14.9Z" class="color000000 svgShape"/><path fill="#8526fe" d="M195.84,121.1h13.57s4-8.82,3.49-8.45-20.29,1.24-20.29,1.24Z" class="color000000 svgShape"/><polygon fill="#ff9a01" points="58.81 216.55 61.24 217.99 33.03 217.99 36.04 216.55 48.65 210.52 58.81 216.55" class="colorff6501 svgShape"/><path fill="#ff9a01" d="M230.82,115.91a5.12,5.12,0,0,1-.93,3.15l-1.41,2-10.79,15L210,146.63h0l-46.15,69.51h0l-.29.39-1,1.44h-11.3L149,216.55l-36.68-23.08-6.42-4L90.38,216.55,89.56,218H77.81l.83-1.44,21-36.59a4.9,4.9,0,0,1,3-2.54,3.05,3.05,0,0,1,1-.16H104a4.52,4.52,0,0,1,2.43.71l2.47,1.56,4.84,3,42.72,26.89,2.44-3.38,58.71-86.86v0l2.87-4h0l1.52-2.13a4.72,4.72,0,0,1,6.79-1.09,5,5,0,0,1,1.85,2.84A4.86,4.86,0,0,1,230.82,115.91Z" class="colorff6501 svgShape"/><path fill="#ff9a01" d="M236.2,144.92a4.94,4.94,0,0,1-4.8-4.29l-4-27.15L197.48,121a4.87,4.87,0,0,1-5.86-3.74,5.09,5.09,0,0,1,3.58-6.12l35-8.81a4.7,4.7,0,0,1,3.84.72,5.07,5.07,0,0,1,2.1,3.43l4.85,32.6a5.06,5.06,0,0,1-4.06,5.79A6.3,6.3,0,0,1,236.2,144.92Z" class="colorff6501 svgShape"/><path fill="#8526fe" d="M57.57,142.24c4.86,3.62,26.8,1.57,32.45,7.5,3.75,3.94,10.35,20.65,10.35,20.65l2.61-1.08s3.79-17.93,3.29-28c-.71-14.1-22.6-12.33-22.6-12.33s-10.42,1.32-14.6,2.73C68.92,131.77,56.68,141.58,57.57,142.24Z" class="color000000 svgShape"/><path fill="#8526fe" d="M90,149.74c5.37,6.25,10.35,20.65,10.35,20.65s4.53-9.58-.31-23.11c-4.29-12-32.41-15.35-33.85-14.54-4.48,2.51-8.64,9.5-8.64,9.5C62.43,145.86,85.06,144,90,149.74Z" class="color000000 svgShape"/><polygon fill="#fff" points="51.4 203.78 48.29 207.63 46.26 206.5 47.91 201.25 51.4 203.78" class="colorffffff svgShape"/><path fill="#8526fe" d="M48.35,208,46,206.62l1.81-5.77,4,2.88Zm-1.79-1.57,1.67.93L51,203.83l-3-2.17Z" class="color000000 svgShape"/><path fill="#8526fe" d="M71.22,129.5s1.26,17.18-3.6,41.52c-2.84,14.21-16.21,32.36-16.21,32.36H47.26a106.12,106.12,0,0,0,5.15-35.21c-.38-16.65-7.27-29.11-4.74-36.38C48.91,128.22,71.22,129.5,71.22,129.5Z" class="color000000 svgShape"/><path fill="#8526fe" d="M51.6,205.46a1,1,0,0,0,1-1.06,2.52,2.52,0,0,0,.45-.89c0-.33-5.84-3.22-6.5-2.52s-.15,1.17-.15,1.17-1,.3-.27.79S49.35,205.26,51.6,205.46Z" class="color000000 svgShape"/><path fill="#02cfb6" d="M49.29,206.38s8.81,4.89,8.05,10.32l-14.37-8s.58-3.8,3.73-3.61A2.38,2.38,0,0,0,49.29,206.38Z" class="color027ccf svgShape"/><path fill="#8526fe" d="M43.17,208.2l9.88,5.48a7,7,0,0,1,2.23-2.48c.09-.06.17.08.08.14a6.87,6.87,0,0,0-2.16,2.42l4.29,2.39a.09.09,0,0,1-.08.15l-4.29-2.39c-.06.12-.13.23-.18.34a.09.09,0,0,1-.15-.08c.05-.12.12-.22.18-.34l-9.89-5.48C43,208.3,43.07,208.15,43.17,208.2Z" class="color000000 svgShape"/><path fill="#8526fe" d="M49.47,209c0,.1.11.18.15.08a2.22,2.22,0,0,1,1.77-1.27h0l0,0a0,0,0,0,1,0,0h0a5.08,5.08,0,0,0,.7.52,2.33,2.33,0,0,0-1.61,1.26c0,.09.11.18.16.08a2.17,2.17,0,0,1,1.57-1.2.08.08,0,0,0,.05-.05,1.63,1.63,0,0,0,1,.18c.45-.07,1.08-.44,1.12-.95a1.48,1.48,0,0,0,.57-1.58c-.73-1.57-3.53.52-3.79,1.52a.08.08,0,0,0,0,.08A2.43,2.43,0,0,0,49.47,209Zm5-1.57c-.13-.58-.92-.8-1.43-.73a2.47,2.47,0,0,0-1.53.72,3.47,3.47,0,0,1,1.41-1.3c.63-.39,2.24-.84,2,.52A1.25,1.25,0,0,1,54.46,207.41Zm-1.72-.49a1.44,1.44,0,0,1,1.08,0,.74.74,0,0,1,.48.57,4.41,4.41,0,0,1-2.74.08A2,2,0,0,1,52.74,206.92Zm-.93.91a3.82,3.82,0,0,0,2.44-.06.42.42,0,0,0,0,.06,1.35,1.35,0,0,1-1.48.53A2.51,2.51,0,0,1,51.81,207.83Z" class="color000000 svgShape"/><path fill="#8526fe" d="M44.93,140.28H43.26a1.62,1.62,0,0,0-.43-.75,1.66,1.66,0,0,0-1.21-.5H36.81v-.72a1.65,1.65,0,0,1,.27-.92h4.55a3.33,3.33,0,0,1,3.3,2.89Z" class="color000000 svgShape" opacity=".3"/><polygon fill="#8526fe" points="60.87 146.83 60.87 150.15 60.86 150.15 60.87 146.83" class="color000000 svgShape" opacity=".3"/><polygon fill="#8526fe" points="46.62 140.28 47.59 140.29 44.93 140.29 43.26 140.28 46.62 140.28" class="color000000 svgShape"/><path fill="#8526fe" d="M60.85,164v2.43a4.08,4.08,0,0,1-.29,1.49,4.28,4.28,0,0,1-1.19.17H56.83A4.11,4.11,0,0,0,60.85,164Z" class="color000000 svgShape"/><polygon fill="#8526fe" points="60.87 146.83 60.87 150.15 60.86 150.15 60.87 146.83" class="color000000 svgShape"/><path fill="#8526fe" d="M46.14,139.77v-2a1.7,1.7,0,0,0-.5-1.21,1.74,1.74,0,0,0-1.22-.5H38.7a1.7,1.7,0,0,0-1.21.5,1.68,1.68,0,0,0-.5,1.21v2H35.36v-2a3.36,3.36,0,0,1,3.34-3.35h5.73a3.33,3.33,0,0,1,3.35,3.34v2Z" class="color000000 svgShape"/><path fill="#8526fe" d="M23.57,167.59l32.13,0a4.1,4.1,0,0,0,4.09-4.1l0-19.58a4.1,4.1,0,0,0-4.1-4.09l-32.13,0a4.1,4.1,0,0,0-4.09,4.1l0,19.58A4.1,4.1,0,0,0,23.57,167.59Z" class="color000000 svgShape"/><path fill="#d8a353" d="M26.2,167.59l32.12,0a4.1,4.1,0,0,0,4.09-4.1l0-19.58a4.1,4.1,0,0,0-4.1-4.09l-32.13,0a4.1,4.1,0,0,0-4.09,4.1l0,19.58A4.1,4.1,0,0,0,26.2,167.59Z" class="colorffc64c svgShape"/><rect width="40.32" height="1.15" x="22.07" y="149.61" fill="#8526fe" class="color000000 svgShape" transform="rotate(179.81 42.231 150.185)"/><path fill="#ff9a01" d="M54.78,153.65h.41a1.49,1.49,0,0,0,1.48-1.49V148.8l-3.38,0v3.35A1.49,1.49,0,0,0,54.78,153.65Z" class="colorff6501 svgShape"/><path fill="#ff9a01" d="M30.16,153.73h.27A1.55,1.55,0,0,0,32,152.17v-3.28H28.59v3.29A1.55,1.55,0,0,0,30.16,153.73Z" class="colorff6501 svgShape"/><polygon fill="#fff" points="103.95 169.87 103.2 174.76 100.89 174.81 99.67 169.44 103.95 169.87" class="colorffffff svgShape"/><path fill="#8526fe" d="M100.69,175.06l-1.34-5.9,4.89.48-.82,5.36Zm-.7-5.34,1.09,4.83,1.91,0,.68-4.42Z" class="color000000 svgShape"/><path fill="#02cfb6" d="M103.29,173.76s10.33,0,12.32,5.08l-16.42.06s-1.36-3.59,1.49-5C100.68,173.93,101.57,174.91,103.29,173.76Z" class="color027ccf svgShape"/><path fill="#8526fe" d="M99.1,178.34l11.3,0a7,7,0,0,1,.73-3.25c.05-.1.2,0,.15.08a6.77,6.77,0,0,0-.71,3.17l4.91,0a.09.09,0,0,1,0,.17l-4.91,0c0,.13,0,.26,0,.39s-.16.1-.17,0,0-.26,0-.39l-11.3.05C99,178.52,99,178.35,99.1,178.34Z" class="color000000 svgShape"/><path fill="#8526fe" d="M105,175.94c0,.11.18.11.17,0a2.24,2.24,0,0,1,.92-2s0,0,0,0l0,0s0,0,0,0h0a5.16,5.16,0,0,0,.87.1,2.33,2.33,0,0,0-.79,1.89c0,.11.18.11.17,0a2.22,2.22,0,0,1,.79-1.82.05.05,0,0,0,0-.07,1.69,1.69,0,0,0,1-.34,1.29,1.29,0,0,0,.51-1.37,1.48,1.48,0,0,0-.27-1.66c-1.41-1-2.82,2.17-2.56,3.18a.06.06,0,0,0,.06,0A2.42,2.42,0,0,0,105,175.94Zm3.59-3.8c-.4-.44-1.19-.25-1.61.06a2.53,2.53,0,0,0-1,1.38,3.47,3.47,0,0,1,.6-1.83c.36-.64,1.54-1.82,2-.51A1.27,1.27,0,0,1,108.57,172.14Zm-1.75.41a1.52,1.52,0,0,1,1-.49.75.75,0,0,1,.69.26,4.49,4.49,0,0,1-2.35,1.42A2,2,0,0,1,106.82,172.55Zm-.36,1.25a3.75,3.75,0,0,0,2.1-1.25s0,0,0,.06a1.32,1.32,0,0,1-1,1.19A2.46,2.46,0,0,1,106.46,173.8Z" class="color000000 svgShape"/><path fill="#8526fe" d="M104.48,171.71a1,1,0,0,0,.39-1.42,2.52,2.52,0,0,0,0-1c-.13-.3-6.67-.12-6.92.8s.4,1.11.4,1.11-.71.71.14.83S102.39,172.58,104.48,171.71Z" class="color000000 svgShape"/><path fill="#fff" d="M103.89,66.08c.34-.33.13-1.47-.62-1.49a2,2,0,0,0-1,.41s-.13-.91-1-.63-.9,1.36-1.3,2c-1.21,1.87-2.77,2.77-3.13,2.53s0-1.24.37-1.58a.78.78,0,0,0,.26-.75c-.11-.35-.39-.36-.65-.32a3.31,3.31,0,0,0-1.69,2.14c-.29,3.53.56,6.48,1.66,7.26.45.32,1.6-.43,2.49-2.88,2-.84,5.45-3.06,4.61-4.39C105,67.66,104.94,66.12,103.89,66.08Z" class="colorffffff svgShape"/><path fill="#8526fe" d="M97.07,76a.65.65,0,0,1-.39-.12c-1.28-.91-2-4.13-1.75-7.48A3.41,3.41,0,0,1,96.82,66a.72.72,0,0,1,.93.48,1,1,0,0,1-.34,1,1.63,1.63,0,0,0-.42,1,.47.47,0,0,0,0,.17c.25.08,1.61-.65,2.78-2.45a7.35,7.35,0,0,0,.32-.68c.23-.56.5-1.21,1.11-1.42a1,1,0,0,1,.78,0,.9.9,0,0,1,.4.45,1.93,1.93,0,0,1,.84-.27h0a1,1,0,0,1,.91.7,1.49,1.49,0,0,1,.07.86,1,1,0,0,1,.65.73,1.81,1.81,0,0,1-.66,1.82,1.23,1.23,0,0,1,0,.76c-.46,1.46-3.32,3.12-4.73,3.74-.61,1.62-1.42,2.73-2.18,3A1,1,0,0,1,97.07,76Zm0-9.49-.16,0a3.12,3.12,0,0,0-1.48,1.91c-.29,3.51.56,6.33,1.55,7,.06,0,.16,0,.22,0,.46-.15,1.24-1,1.89-2.76l0-.1.1,0c1.68-.71,4.19-2.32,4.55-3.47a.63.63,0,0,0,0-.56l-.13-.2.2-.14a1.33,1.33,0,0,0,.64-1.4.56.56,0,0,0-.55-.43h-.57l.4-.41a.75.75,0,0,0,0-.69.53.53,0,0,0-.46-.38,1.71,1.71,0,0,0-.81.34l-.17.15-.22-.21,0-.1c0-.09-.09-.33-.25-.42a.48.48,0,0,0-.39,0c-.4.13-.6.62-.81,1.13a5.91,5.91,0,0,1-.36.76,6.08,6.08,0,0,1-3,2.65.61.61,0,0,1-.49-.05.64.64,0,0,1-.25-.51,2.13,2.13,0,0,1,.59-1.47.51.51,0,0,0,.19-.49A.19.19,0,0,0,97.06,66.47Z" class="color000000 svgShape"/><path fill="#fff" d="M42.5,132.1h0a3.2,3.2,0,0,1,1.52.51c.31.15.82,0,.79-.4-.09-1.67-3-1.68-4.6-1.51-1.38-.38-3.34-.51-3.73.69-.26.76.39,1.06.72,1.75.4.84.5,4.63,1.48,5,1.36.5-.14-2.67.67-2.38.28.11.67,4.22,1.6,3.36.41-.38.1-3.47.7-2.82.32,1,.45,3.8,1.31,3.6.41-.09.53-2,.4-2.64-.45-2.16.33-1.94.89.09.28,1.06,1,1.25,1.13.12C45.63,135.55,44,133.54,42.5,132.1Z" class="colorffffff svgShape"/><path fill="#8526fe" d="M42.9,140.15a.61.61,0,0,1-.34-.1c-.46-.31-.65-1.23-.88-2.51,0-.26-.09-.51-.13-.73,0,.25,0,.56-.07.8,0,.9-.1,1.46-.34,1.68a.54.54,0,0,1-.57.16c-.5-.15-.77-1-1.06-2.31.07.51.07,1-.2,1.18a.68.68,0,0,1-.69.05c-.72-.26-1-1.61-1.28-3.49a8.91,8.91,0,0,0-.35-1.64,2.9,2.9,0,0,0-.36-.53,1.4,1.4,0,0,1-.37-1.4c.43-1.32,2.41-1.29,4-.86,1-.1,3.24-.22,4.29.67a1.46,1.46,0,0,1,.54,1.08.63.63,0,0,1-.29.59.88.88,0,0,1-.86,0l-.14-.07a4.63,4.63,0,0,0-.51-.24c1.32,1.36,2.58,3.17,2.36,5-.1.82-.46,1-.67,1-.4,0-.76-.38-.95-1.06a4.83,4.83,0,0,0-.52-1.31,4.15,4.15,0,0,0,.13,1.1c.1.52.1,2.78-.59,2.94ZM41.52,136a.49.49,0,0,1,.34.17l0,.09a9.23,9.23,0,0,1,.26,1.25c.14.78.35,2,.67,2.17a.1.1,0,0,0,.09,0,5.26,5.26,0,0,0,.21-2.35c-.32-1.51,0-1.76.2-1.82.55-.13,1,1.07,1.17,1.8.14.54.35.7.43.69s.16-.13.21-.54c.24-2-1.66-4.07-2.82-5.15l-.4-.37.55-.06h0a3.07,3.07,0,0,1,1.53.46l.14.08a.41.41,0,0,0,.36,0,.13.13,0,0,0,.07-.15,1,1,0,0,0-.36-.72c-.75-.64-2.54-.7-4-.55h0l-.05,0c-1.1-.3-3.08-.54-3.43.53-.12.37,0,.56.3.93a3.43,3.43,0,0,1,.41.63,8,8,0,0,1,.39,1.77c.18,1.16.46,2.92,1,3.1.14,0,.19,0,.2,0s0-.8,0-1.14c-.1-.59-.16-1,.08-1.22a.41.41,0,0,1,.42,0c.22.07.28.32.49,1.24.14.64.48,2.12.78,2.22a.5.5,0,0,0,.08-.06,4.52,4.52,0,0,0,.18-1.34c.06-1,.11-1.49.43-1.61Zm2,0Z" class="color000000 svgShape"/><path fill="#02cfb6" d="M99.05,104.7c.43-.07.85-.16,1.26-.25a11,11,0,0,0,5.65-2.78c2.06-2.25,1.88-6.71.64-11.44-.09-.4-.2-.78-.31-1.17a50.34,50.34,0,0,0-3.2-8.08c-.17-.36-.36-.71-.53-1a24.13,24.13,0,0,0-4.13-6l-3.53.3s.51,2.17,1,6c0,.39.1.79.16,1.19s.09.81.12,1.23a38.63,38.63,0,0,1,.25,4.23c0,.27,0,.54,0,.81,0,.44,0,.87-.08,1.29a7.71,7.71,0,0,1-.76,3,1.88,1.88,0,0,1-1.64.92,5.44,5.44,0,0,1-1.23-.09,18.26,18.26,0,0,1-3-.85c-5.38-1.92-18.33-6.26-21.87-2C59.39,100.3,86,107,99.05,104.7Z" class="color027ccf svgShape"/><path fill="#8526fe" d="M87.31,104.8s-.28-6.92-8.5-12.32c0,0-4-4.71-9-4.35,0,0-.19,13.24,6.4,14.84A72.61,72.61,0,0,0,87.31,104.8Z" class="color000000 svgShape"/><path fill="#02cfb6" d="M46.23,132.53c3,.54,5.84.93,8.53,1.21.39,0,.77.09,1.15.11a98.24,98.24,0,0,0,10.83.47c.4,0,.81,0,1.2,0a72.54,72.54,0,0,0,13.29-1.51l1.12-.27a31.14,31.14,0,0,0,6.12-2c-.29-2.24-.58-4.38-.85-6.44-.06-.39-.1-.77-.15-1.16-.55-4.11-1.08-7.85-1.63-11.24-.07-.4-.14-.8-.2-1.18a74.55,74.55,0,0,0-3-12.43c-.14-.37-.28-.74-.43-1.11-2.7-6.58-6.75-9.86-13.92-10.16A15.26,15.26,0,0,0,56.69,91c-.23.21-.46.44-.68.68a27.74,27.74,0,0,0-5.59,9.34c-.13.34-.27.7-.38,1.06a64.31,64.31,0,0,0-3,13c0,.37-.09.74-.15,1.1-.37,3.19-.57,6.19-.66,8.71,0,.41,0,.8-.05,1.19C46.09,130,46.23,132.53,46.23,132.53Z" class="color027ccf svgShape"/><path fill="#8526fe" d="M46.22,132.53s-.59-21.33,4-30l3.89,3.17s-2,6.9-3.11,12.08C48.91,127.25,49.18,133,49.18,133Z" class="color000000 svgShape"/><path fill="#8526fe" d="M55.73,91.94s6.56,8.22-1.59,13.74l-.59,2.16s3.2-.38,6.21-5.33c4.07-6.7-.16-10.66-.16-10.66Z" class="color000000 svgShape"/><path fill="#02cfb6" d="M31.39,127.61c.28.31.56.62.85.92h0a40.67,40.67,0,0,0,3.81,3.54l1.29-.21,1.3-.21,2.2-.36a36.76,36.76,0,0,1-2.56-5.76c-.13-.37-.26-.75-.36-1.13a15.28,15.28,0,0,1-.67-7.48,6.68,6.68,0,0,1,.41-1.24A5.54,5.54,0,0,1,38,115a12.25,12.25,0,0,1,3.23-3.38c.31-.23.63-.45,1-.67a35.7,35.7,0,0,1,5.3-2.83l1.09-.46a51,51,0,0,1,5.14-1.8,18.2,18.2,0,0,0,6.18-9c.1-.31.18-.62.27-.92a19.41,19.41,0,0,0,.46-7.71A47.78,47.78,0,0,0,50.06,91c-.47.17-.94.36-1.39.56a42.43,42.43,0,0,0-11.58,7.23c-.36.31-.7.62-1,.94a31.31,31.31,0,0,0-7.8,10.83,20.74,20.74,0,0,0-1,4.26c-.06.4-.09.8-.12,1.18A15.85,15.85,0,0,0,31.39,127.61Z" class="color027ccf svgShape"/><path fill="#fff" d="M68.73,88.27a8,8,0,0,1-4-1.34A10.51,10.51,0,0,0,65,81.62l4.76,1.16a6.27,6.27,0,0,0,1.39,4.4A3,3,0,0,1,68.73,88.27Z" class="colorffffff svgShape"/><path fill="#8526fe" d="M65.37,82l4.16,1a6.64,6.64,0,0,0,1.34,4.2,2.8,2.8,0,0,1-2.14.85,7.67,7.67,0,0,1-3.67-1.2A10.68,10.68,0,0,0,65.37,82Zm-.68-.68A10.06,10.06,0,0,1,64.46,87a8.4,8.4,0,0,0,4.27,1.48,3.14,3.14,0,0,0,2.77-1.34c-1.94-2.57-1.42-4.59-1.42-4.59l-5.39-1.31Z" class="color000000 svgShape"/><path fill="#8526fe" d="M36.54,134a17.7,17.7,0,0,0,5.66-3.34l-.62-1.91s-6.68,3.43-7.22,3.52Z" class="color000000 svgShape"/><path fill="#8526fe" d="M94.32,74.19s4.21-1.7,5.61-.92l.87,2-6.15.85Z" class="color000000 svgShape"/><path fill="#fff" d="M66.55,70.72c-2.75.61-4.28,4.22-3.43,8.07s3.76,6.48,6.51,5.87,4.28-4.22,3.43-8.07S69.3,70.11,66.55,70.72Z" class="colorffffff svgShape"/><path fill="#8526fe" d="M68.82,85a5,5,0,0,1-3.33-1.42,9.54,9.54,0,0,1-2.24-10.14,4.73,4.73,0,0,1,3.25-3h0a4.71,4.71,0,0,1,4.19,1.32,9.54,9.54,0,0,1,2.24,10.14,4.73,4.73,0,0,1-3.25,3A3.55,3.55,0,0,1,68.82,85ZM66.6,71a4.28,4.28,0,0,0-2.89,2.67,9.06,9.06,0,0,0,2.12,9.58,3.89,3.89,0,0,0,6.63-1.47,9,9,0,0,0-2.11-9.57A4.24,4.24,0,0,0,66.6,71Z" class="color000000 svgShape"/><path fill="#fff" d="M71.65,76.38a23.61,23.61,0,0,1,2.45,3.67.37.37,0,0,1-.23.51,10.87,10.87,0,0,1-2.55.51C70.55,81,71.65,76.38,71.65,76.38Z" class="colorffffff svgShape"/><path fill="#8526fe" d="M71.4,81.33h-.09a.44.44,0,0,1-.33-.18c-.5-.68.2-3.85.43-4.81l.12-.5.32.4A23.32,23.32,0,0,1,74.33,80a.65.65,0,0,1,0,.51.62.62,0,0,1-.39.34A12.25,12.25,0,0,1,71.4,81.33ZM71.78,77c-.43,1.94-.61,3.66-.4,3.89a12.83,12.83,0,0,0,2.42-.52.11.11,0,0,0,.08-.07.26.26,0,0,0,0-.09A20.7,20.7,0,0,0,71.78,77Z" class="color000000 svgShape"/><path fill="#8526fe" d="M63.93,76a1.8,1.8,0,0,0,1.68-1.38c.44-1.41,2.28-1.31,3.61-.61a5.6,5.6,0,0,0,5,.11c1.14-.65,2.5-3,.38-4.56-1.93-1.44-6.9-1.9-8.45-1.6-2.82.52-6.15,4.22-5.57,7.64.42,2.42,1.77,6.26,3.74,6.21C63.8,79.22,63.13,77.56,63.93,76Z" class="color000000 svgShape"/><path fill="#fff" d="M64.52,77.38s-1-1.13-1.85-.22S63.1,81,64.47,80,64.52,77.38,64.52,77.38Z" class="colorffffff svgShape"/><path fill="#8526fe" d="M64.59,82.57A4.13,4.13,0,0,1,64,80.23a12,12,0,0,0,.45-4.93c-.06-.47.67-.19.67-.19s2.77,9.07,8,5.67c0,0,.28,2.5-.41,3.35-1.7,2.07-5.49,1.25-6.65.33A7.78,7.78,0,0,1,64.59,82.57Z" class="color000000 svgShape"/><polygon fill="#fff" points="72.27 76.06 71.43 81.48 70.31 80.92 69.82 78.37 70.83 74.89 72.27 76.06" class="colorffffff svgShape"/><rect width="207.14" height="1.44" x="25.85" y="216.55" fill="#8526fe" class="color000000 svgShape"/></svg>